<svg xmlns="http://www.w3.org/2000/svg" xmlns:xlink="http://www.w3.org/1999/xlink" viewBox="0 0 60.75 60.75"><defs><style>.cls-1{fill:url(#linear-gradient);}.cls-2{fill:url(#linear-gradient-2);}.cls-3{fill:url(#linear-gradient-3);}</style><linearGradient id="linear-gradient" x1="30.37" y1="1" x2="30.38" y2="59" gradientUnits="userSpaceOnUse"><stop offset="0.13" stop-color="#e5f600"/><stop offset="1" stop-color="#a2ca00"/></linearGradient><linearGradient id="linear-gradient-2" x1="34.59" x2="34.59" y2="59" xlink:href="#linear-gradient"/><linearGradient id="linear-gradient-3" x1="21.53" x2="21.53" y2="59" xlink:href="#linear-gradient"/></defs><title>Asset 4</title><g id="Layer_2" data-name="Layer 2"><g id="Layer_1-2" data-name="Layer 1"><path class="cls-1" d="M30.38,60.75A30.38,30.38,0,1,1,60.75,30.38,30.41,30.41,0,0,1,30.38,60.75Zm0-56.25A25.88,25.88,0,1,0,56.25,30.38,25.91,25.91,0,0,0,30.38,4.5Z"/><path class="cls-2" d="M30.38,42.47a2.26,2.26,0,0,1-2.26-2.25V20.53A2.25,2.25,0,0,1,32,18.94l8.43,8.44a2.25,2.25,0,1,1-3.18,3.18L32.62,26V40.22A2.24,2.24,0,0,1,30.38,42.47Z"/><path class="cls-3" d="M20.17,27.28a2.32,2.32,0,0,0-.23,3.15,2.27,2.27,0,0,0,1.72.79,1.61,1.61,0,0,0,.44-.06,2.09,2.09,0,0,0,1.52-2.05V23.93Z"/></g></g></svg>